<?xml version="1.0" encoding="UTF-8" standalone="no"?>
<svg
   xmlns:dc="http://purl.org/dc/elements/1.1/"
   xmlns:cc="http://creativecommons.org/ns#"
   xmlns:rdf="http://www.w3.org/1999/02/22-rdf-syntax-ns#"
   xmlns:svg="http://www.w3.org/2000/svg"
   xmlns="http://www.w3.org/2000/svg"
   xmlns:sodipodi="http://sodipodi.sourceforge.net/DTD/sodipodi-0.dtd"
   xmlns:inkscape="http://www.inkscape.org/namespaces/inkscape"
   width="40"
   height="40"
   viewBox="0 0 10.583333 10.583334"
   version="1.1"
   id="svg2158"
   inkscape:version="1.0.1 (3bc2e813f5, 2020-09-07)"
   sodipodi:docname="карты.svg">
  <defs
     id="defs2152" />
  <sodipodi:namedview
     id="base"
     pagecolor="#ffffff"
     bordercolor="#666666"
     borderopacity="1.0"
     inkscape:pageopacity="0.0"
     inkscape:pageshadow="2"
     inkscape:zoom="7.9195959"
     inkscape:cx="22.085023"
     inkscape:cy="20.467714"
     inkscape:document-units="px"
     inkscape:current-layer="layer1"
     inkscape:document-rotation="0"
     showgrid="false"
     units="px"
     inkscape:window-width="1710"
     inkscape:window-height="991"
     inkscape:window-x="192"
     inkscape:window-y="0"
     inkscape:window-maximized="0" />
  <metadata
     id="metadata2155">
    <rdf:RDF>
      <cc:Work
         rdf:about="">
        <dc:format>image/svg+xml</dc:format>
        <dc:type
           rdf:resource="http://purl.org/dc/dcmitype/StillImage" />
        <dc:title></dc:title>
      </cc:Work>
    </rdf:RDF>
  </metadata>
  <g
     inkscape:label="Слой 1"
     inkscape:groupmode="layer"
     id="layer1">
    <rect
       style="fill:#0000ff;fill-opacity:0.956693;stroke:none;stroke-width:0.150568;stroke-linecap:round;stroke-linejoin:round;stroke-miterlimit:4;stroke-dasharray:none"
       id="rect2725"
       width="4.2333336"
       height="2.1166668"
       x="1.2361217"
       y="1.4699825" />
    <rect
       style="fill:#ff0000;fill-opacity:0.956693;stroke:none;stroke-width:0.127673;stroke-linecap:round;stroke-linejoin:round;stroke-miterlimit:4;stroke-dasharray:none"
       id="rect2727"
       width="4.2333336"
       height="2.1166668"
       x="4.4099474"
       y="4.320466" />
    <path
       style="fill:#000080;fill-opacity:0.956693;stroke:none;stroke-width:0.133;stroke-linecap:round;stroke-linejoin:round;stroke-miterlimit:4;stroke-dasharray:none"
       id="path2731"
       d="m 5.9560771,2.9556758 c 0.079576,0.072304 0.1525349,0.1514346 0.2314403,0.2244133 0.061366,0.054121 0.1142537,0.1152975 0.1677646,0.1767631 0.046881,0.058906 0.098792,0.112649 0.1338869,0.1796613 0.033867,0.06331 0.074046,0.1212054 0.093438,0.1909728 0.015253,0.064447 0.031562,0.1279779 0.039346,0.1939306 0,0 0.4367681,-0.2292204 0.4367681,-0.2292204 v 0 C 7.0502147,3.6236522 7.0327469,3.5573476 7.016357,3.4903503 6.9934811,3.4183879 6.9526901,3.3576081 6.9164948,3.2919856 6.8791843,3.2216038 6.8281819,3.1625324 6.7772385,3.1016139 6.7209156,3.0399186 6.6693962,2.9748864 6.6040343,2.9217319 6.5238608,2.8520729 6.4514507,2.7738182 6.3782841,2.6969469 c 0,0 -0.422207,0.2587289 -0.422207,0.2587289 z" />
    <path
       style="fill:#000080;fill-opacity:0.956693;stroke:none;stroke-width:0.133;stroke-linecap:round;stroke-linejoin:round;stroke-miterlimit:4;stroke-dasharray:none"
       id="path2733"
       d="m 2.6364389,4.3894633 c 0.046442,0.078547 0.095397,0.1542801 0.1477398,0.2290675 0.045119,0.074147 0.088483,0.1493255 0.1422247,0.2176087 0.052624,0.069032 0.1080955,0.1357339 0.16158,0.2041218 0.052502,0.060627 0.1129787,0.1136375 0.1681919,0.1716352 0.049489,0.060003 0.1150654,0.095469 0.1814065,0.1326743 0.031323,0.016497 0.061154,0.034706 0.089803,0.055419 0,0 0.4174569,-0.2636528 0.4174569,-0.2636528 v 0 C 3.9155442,5.1130908 3.885518,5.0918844 3.8513111,5.0761737 3.7901458,5.0391381 3.7238568,5.0127563 3.6769739,4.9556341 3.6231177,4.898369 3.5645107,4.8458013 3.5113223,4.7878364 3.4575965,4.7193172 3.3997919,4.6542948 3.3483797,4.5839548 3.2942248,4.5173539 3.2543677,4.4407416 3.2074488,4.3690221 3.1560387,4.2966199 3.1075115,4.2235722 3.0670162,4.1442996 c 0,0 -0.4305773,0.2451637 -0.4305773,0.2451637 z" />
    <circle
       id="path2735"
       style="fill:#0000ff;stroke:#000000;stroke-width:0.264583"
       cx="3.8085909"
       cy="5.3453908"
       r="0.002219456" />
    <path
       style="fill:#ffffff;fill-opacity:0.956693;stroke:none;stroke-width:0.133;stroke-linecap:round;stroke-linejoin:round;stroke-miterlimit:4;stroke-dasharray:none"
       id="path2741"
       d="m 1.197403,3.0855111 c 0.1436903,-0.017857 0.2865645,-0.040971 0.4307361,-0.055094 0.1589268,-0.014375 0.3185857,-0.015457 0.4780281,-0.016521 0.1589902,1.696e-4 0.317967,0.00249 0.4769567,0.0014 0.1810124,7.673e-4 0.3620131,-0.00132 0.5430235,-0.00119 0.1708327,0.00148 0.341661,0.00114 0.5124966,0.00106 0.1773751,0.00251 0.3547298,-8.202e-4 0.5320956,-0.0022 0.1846353,-1.508e-4 0.3692626,0.0014 0.5538838,0.00349 0.088856,-0.00159 0.1773148,-0.01306 0.2642209,-0.031201 0.074191,-0.020333 0.1483455,-0.039207 0.2242574,-0.051881 0,0 0.3933164,-0.2948461 0.3933164,-0.2948461 v 0 C 5.5300471,2.648828 5.4540125,2.661688 5.3810285,2.687333 5.2945715,2.70674 5.207538,2.722068 5.1190823,2.729865 4.9312564,2.731925 4.743425,2.733495 4.5555856,2.733355 4.3802224,2.731975 4.2048719,2.728635 4.0294984,2.731185 3.8577161,2.7310837 3.6859412,2.7307882 3.5141613,2.732215 3.3344555,2.732287 3.1547587,2.730155 2.975051,2.730625 2.8147191,2.729195 2.6543911,2.730969 2.4940601,2.731865 2.335964,2.7320388 2.1773926,2.726965 2.0196921,2.740115 1.8785685,2.753736 1.7383161,2.773841 1.5980573,2.794437 c 0,0 -0.4006543,0.2910925 -0.4006543,0.2910925 z" />
    <path
       style="fill:#ffffff;fill-opacity:0.956693;stroke:none;stroke-width:0.133;stroke-linecap:round;stroke-linejoin:round;stroke-miterlimit:4;stroke-dasharray:none"
       id="path2743"
       d="M 4.3044114,6.025476 C 4.5113296,6.018296 4.71841,6.019546 4.9254144,6.020306 5.1713369,6.026706 5.4164176,6.009445 5.6611236,5.987381 5.8520482,5.965952 6.043878,5.95875 6.2358182,5.954787 c 0.2295109,-0.00435 0.4590555,-6.59e-5 0.6885805,-0.00193 0.2148327,7.408e-4 0.4296593,9.26e-4 0.6444919,7.408e-4 0.158305,6.88e-4 0.316605,0.00222 0.4749094,0.00297 0.1123074,8.466e-4 0.2246127,1.606e-4 0.3369207,3.175e-4 0,0 0.3957637,-0.28754 0.3957637,-0.28754 v 0 C 8.6638749,5.6695139 8.5512674,5.6688426 8.4386581,5.6696893 8.2776856,5.6704301 8.116717,5.6719393 7.9557435,5.6725493 7.7405669,5.6722053 7.5253947,5.6721524 7.3102176,5.672585 7.080274,5.670445 6.8503474,5.674385 6.6204001,5.674545 6.4285748,5.676075 6.2361074,5.6745374 6.0457338,5.701986 5.8017972,5.729335 5.5576284,5.74932 5.3118402,5.739567 5.1095816,5.7403078 4.9072299,5.741817 4.7050657,5.734397 c 0,0 -0.4006543,0.2910925 -0.4006543,0.2910925 z"
       inkscape:export-xdpi="96"
       inkscape:export-ydpi="96" />
  </g>
</svg>
